Coordinates
version=1
nRows=11
nColumns=36
inDegrees=yes

Units are S.I. units (second, meters, Newtons, ...)
If the header above contains a line with 'inDegrees', this indicates whether rotational values are in degrees (yes) or radians (no).

endheader
time	pelvis_tilt	pelvis_list	pelvis_rotation	pelvis_tx	pelvis_ty	pelvis_tz	hip_flexion_r	hip_adduction_r	hip_rotation_r	knee_angle_r	knee_angle_r_beta	ankle_angle_r	subtalar_angle_r	mtp_angle_r	hip_flexion_l	hip_adduction_l	hip_rotation_l	knee_angle_l	knee_angle_l_beta	ankle_angle_l	subtalar_angle_l	mtp_angle_l	lumbar_extension	lumbar_bending	lumbar_rotation	arm_flex_r	arm_add_r	arm_rot_r	elbow_flex_r	pro_sup_r	arm_flex_l	arm_add_l	arm_rot_l	elbow_flex_l	pro_sup_l
      2.77083330	    -12.51520328	      1.44473874	      1.40594239	      0.42416954	      1.44852511	     -0.05607556	      2.41390286	    -13.85479019	    -23.03146454	      6.48776956	      0.11323294	    -29.04640820	     -0.72034503	     -7.49999987	      6.49155281	     -8.18480934	    -16.61676648	      8.68617556	      0.15160236	    -26.21661624	     -3.67023182	     -7.49999987	      6.88677315	     -0.88679777	     -1.00337692	    138.29016374	    -16.92580354	     42.04346300	     75.19196267	     87.51443266	    141.11857675	    -20.27571406	     50.49466999	     75.50487769	     83.66424045
      2.77500000	    -12.55282866	      1.46171255	      1.33835026	      0.42582229	      1.45161470	     -0.05563781	      2.46740387	    -13.75338848	    -22.79606807	      6.25028557	      0.10908806	    -28.54497569	     -0.21760549	     -7.49999987	      6.42977397	     -8.31434997	    -16.87170748	      8.66862518	      0.15129605	    -25.73605185	     -3.45655287	     -7.49999987	      7.12714033	     -0.93833104	     -1.05151650	    137.68975263	    -16.97675262	     42.16011379	     75.57763597	     85.88130522	    140.71886715	    -20.49473325	     50.61923785	     75.88810544	     82.13518271
      2.77916670	    -12.45352263	      1.60199061	      1.33705192	      0.42571954	      1.45516091	     -0.05590477	      2.24068325	    -13.81462619	    -22.76746681	      5.84510621	      0.10201635	    -28.26138387	      1.06346749	     -7.49999987	      6.38219535	     -8.25810820	    -17.18843817	      8.51920523	      0.14868818	    -25.63189170	     -3.20196325	     -7.49999987	      6.90378840	     -1.10961550	     -1.42909125	    137.42150126	    -16.65789167	     41.42910265	     75.72935003	     90.30881209	    141.18802229	    -20.97615644	     51.08294087	     76.59265983	     85.84504126
      2.78333330	    -12.27088803	      1.73349004	      1.28513447	      0.42539862	      1.45532799	     -0.05560633	      2.09933317	    -13.94402413	    -22.45729315	      5.84155611	      0.10195439	    -27.93571923	      1.68071876	     -7.49999987	      6.25697432	     -8.26752689	    -17.30421643	      8.38797866	      0.14639785	    -25.58201446	     -2.98294828	     -7.49999987	      6.72857886	     -1.25780368	     -1.31970193	    137.45895957	    -16.70655212	     41.73817214	     75.65830710	     89.10060376	    141.09440350	    -20.89928638	     51.26548711	     76.82307132	     84.63839413
      2.78750000	    -12.23011907	      1.61606710	      1.31370952	      0.42498530	      1.45771854	     -0.05561003	      2.10197555	    -13.78404641	    -21.90580105	      5.90720194	      0.10310012	    -27.56546975	      1.76892856	     -7.49999987	      6.28191115	     -8.46795532	    -17.08038020	      8.33051127	      0.14539485	    -24.99609459	     -2.57669092	     -7.49999987	      6.69778115	     -1.16763001	     -1.35939172	    137.37869743	    -16.85720075	     42.00780010	     75.70802708	     88.02913857	    140.97639762	    -20.83909652	     51.54742215	     77.12236982	     83.64106518
      2.79166670	    -12.16053692	      1.60531947	      1.05042915	      0.42457997	      1.45575919	     -0.05481564	      2.25778715	    -13.81747021	    -21.51904772	      6.10083968	      0.10647974	    -27.79161286	      1.52690060	     -7.49999987	      6.20256334	     -8.62122684	    -16.59444382	      8.25709756	      0.14411354	    -25.16845853	     -2.07507753	     -7.49999987	      6.50986613	     -1.11699572	     -1.08680087	    137.65664980	    -16.72845877	     42.17763800	     75.29381968	     86.04069242	    141.30629226	    -20.82824102	     52.00398724	     77.15893942	     81.87828871
      2.79583330	    -12.16905141	      1.55470057	      1.17869188	      0.42502369	      1.46017344	     -0.05452861	      2.26606668	    -13.75642702	    -20.87525330	      6.10326565	      0.10652208	    -27.55567448	      1.85537739	     -7.49999987	      6.32980971	     -8.80594855	    -16.08812360	      8.12449396	      0.14179917	    -24.97720264	     -1.83860711	     -7.49999987	      6.44761671	     -1.13799698	     -1.13973468	    137.86509044	    -16.73508435	     42.15652583	     75.17431490	     86.11864633	    141.43134785	    -20.73452060	     52.10730272	     77.15503442	     81.95014076
      2.80000000	    -12.03307699	      1.61113180	      1.16606500	      0.42645259	      1.45628589	     -0.05654577	      2.19122396	    -13.93379629	    -20.09946422	      6.33074924	      0.11049242	    -27.30852211	      1.84573612	     -7.49999987	      6.16227594	     -8.77147366	    -15.39461113	      8.15247473	      0.14228753	    -24.65391667	     -1.28911979	     -7.49999987	      6.19088226	     -1.12995355	     -1.27211480	    138.60473658	    -16.41861844	     42.24336359	     74.03629644	     90.80020457	    142.45635289	    -20.90551300	     53.08017796	     76.69228292	     85.47844798
      2.80416670	    -12.04039346	      1.62147801	      1.26317331	      0.42647304	      1.46140166	     -0.05552508	      2.22517512	    -13.99612878	    -19.43681896	      6.30663824	      0.11007160	    -27.03959845	      2.12567820	     -7.49999987	      6.19806112	     -8.76960335	    -14.82327029	      8.13465404	      0.14197650	    -24.42264065	     -1.04699341	     -7.49999987	      6.24305733	     -1.15101014	     -1.26927954	    138.70835442	    -16.44184787	     42.25288967	     73.96716696	     90.75633042	    142.48880735	    -20.90891911	     53.14212879	     76.68384975	     85.45203633
      2.80833330	    -11.86827604	      1.58188947	      1.17111922	      0.42656086	      1.45953927	     -0.05557132	      2.09731782	    -13.96339749	    -18.97175310	      6.32616571	      0.11041242	    -27.11947612	      2.19820798	     -7.49999987	      6.01118462	     -8.80505873	    -14.48540873	      8.12418255	      0.14179373	    -24.18815984	     -0.92558018	     -7.49999987	      6.17343752	     -1.12584965	     -1.30581305	    138.84064959	    -16.36727931	     42.65742259	     73.61819023	     88.41910315	    142.53582314	    -20.91097326	     53.56572705	     76.46238744	     83.42227362
      2.81250000	    -11.83094686	      1.65006547	      1.08819305	      0.42622838	      1.46256160	     -0.05515981	      2.19239388	    -14.05624299	    -18.34547056	      6.39753706	      0.11165809	    -26.82638099	      2.58325901	     -7.49999987	      6.01039476	     -8.75473167	    -14.07418829	      8.17532391	      0.14268632	    -24.05912554	     -0.73600900	     -7.49999987	      5.98321878	     -1.18182814	     -1.48621712	    139.19166742	    -16.02548352	     42.56695960	     73.33290222	     90.52056514	    143.03427097	    -21.04748904	     54.08127679	     76.64303982	     85.31154816
